<svg width="138" height="125" viewBox="0 0 138 125" fill="none" xmlns="http://www.w3.org/2000/svg">
<rect width="138" height="125" fill="white"/>
<path fill-rule="evenodd" clip-rule="evenodd" d="M17.25 12.25H106.375V26.625H100.625V18H23V84.125H84.4876V89.875H17.25V12.25ZM103.5 49.625C105.787 49.625 107.981 48.7163 109.599 47.0988C111.216 45.4813 112.125 43.2875 112.125 41C112.125 38.7125 111.216 36.5187 109.599 34.9012C107.981 33.2837 105.787 32.375 103.5 32.375C101.213 32.375 99.0187 33.2837 97.4012 34.9012C95.7837 36.5187 94.875 38.7125 94.875 41C94.875 43.2875 95.7837 45.4813 97.4012 47.0988C99.0187 48.7163 101.213 49.625 103.5 49.625ZM109.339 55.4038C113.074 55.4038 116.029 57.0828 117.964 59.676C119.772 62.1054 120.537 65.1097 120.71 67.8841C120.879 70.73 120.491 73.5816 119.568 76.2791C118.706 78.7804 117.248 81.3679 115 83.1418V111.438C115.002 112.521 114.596 113.566 113.863 114.363C113.13 115.161 112.124 115.654 111.044 115.744C109.964 115.833 108.89 115.513 108.036 114.847C107.181 114.18 106.609 113.217 106.433 112.148L102.724 89.875H101.867L97.6752 112.231C97.4762 113.286 96.8907 114.229 96.0333 114.875C95.1758 115.522 94.1081 115.825 93.039 115.726C91.9699 115.626 90.9762 115.132 90.2523 114.339C89.5285 113.546 89.1265 112.511 89.125 111.438V70.4199C88.5501 71.2957 87.9827 72.1764 87.423 73.062L87.1988 73.4156L87.1413 73.5076L87.1269 73.5335C86.7394 74.1556 86.1997 74.6688 85.5589 75.0244C84.918 75.3801 84.1971 75.5665 83.4641 75.5661H69.0891C67.9454 75.5661 66.8485 75.1118 66.0397 74.303C65.231 73.4943 64.7766 72.3974 64.7766 71.2536C64.7766 70.1099 65.231 69.013 66.0397 68.2042C66.8485 67.3955 67.9454 66.9411 69.0891 66.9411H81.098C81.7966 65.8601 82.7166 64.4571 83.6826 63.0484C84.6889 61.5793 85.7986 60.0239 86.7876 58.8049C87.2678 58.2098 87.8054 57.5888 88.3459 57.0799C88.6104 56.8298 88.9784 56.5049 89.4269 56.2174C90.2184 55.6978 91.1424 55.4164 92.0891 55.4066L109.339 55.4038Z" fill="#3C424B"/>
</svg>
