<svg width="118" height="127" viewBox="0 0 118 127" fill="none" xmlns="http://www.w3.org/2000/svg">
<path d="M58.9261 112.75C57.7276 112.75 56.7004 112.364 55.8443 111.592C54.9883 110.82 54.389 109.839 54.0466 108.65L51.7352 97.3751C49.6807 96.5209 47.7528 95.6223 45.9517 94.6793C44.1505 93.7363 42.3117 92.5849 40.4352 91.2251L29.392 94.5563C28.1935 94.898 27.0807 94.8536 26.0534 94.4231C25.0261 93.9926 24.1701 93.2682 23.4852 92.2501L17.3216 82.0001C16.6367 80.9751 16.4655 79.8646 16.8079 78.6688C17.1504 77.473 17.7496 76.448 18.6057 75.5938L27.0807 68.1626C26.7382 65.7709 26.567 63.5501 26.567 61.5001C26.567 59.4501 26.7382 57.2292 27.0807 54.8376L18.6057 47.4063C17.7496 46.5522 17.1504 45.5272 16.8079 44.3313C16.4655 43.1355 16.6367 42.0251 17.3216 41.0001L23.4852 30.7501C24.1701 29.7251 25.0261 29.0008 26.0534 28.5771C27.0807 28.1534 28.1935 28.109 29.392 28.4438L40.4352 31.7751C42.3186 30.4084 44.1574 29.257 45.9517 28.3208C47.746 27.3847 49.6738 26.4861 51.7352 25.6251L54.0466 14.3501C54.389 13.1543 54.9883 12.1703 55.8443 11.3981C56.7004 10.6259 57.7276 10.2433 58.9261 10.2501H71.2534C72.4519 10.2501 73.4792 10.6362 74.3352 11.4083C75.1913 12.1805 75.7905 13.1611 76.1329 14.3501L78.4443 25.6251C80.4988 26.4793 82.4267 27.4188 84.2278 28.4438C86.029 29.4688 87.8678 30.7501 89.7443 32.2876L100.531 28.4438C101.729 27.9313 102.887 27.9313 104.003 28.4438C105.119 28.9563 106.016 29.7251 106.694 30.7501L112.858 41.5126C113.543 42.5376 113.8 43.648 113.628 44.8438C113.457 46.0397 112.858 47.0647 111.831 47.9188L103.099 55.3501C103.441 57.4001 103.612 59.5355 103.612 61.7563C103.612 63.9772 103.441 66.1126 103.099 68.1626L111.574 75.5938C112.43 76.448 113.029 77.473 113.372 78.6688C113.714 79.8646 113.543 80.9751 112.858 82.0001L106.694 92.2501C106.009 93.2751 105.153 94.0028 104.126 94.4333C103.099 94.8638 101.986 94.9048 100.787 94.5563L89.7443 91.2251C87.861 92.5917 86.0221 93.7466 84.2278 94.6896C82.4335 95.6326 80.5057 96.5277 78.4443 97.3751L76.1329 108.65C75.7905 109.846 75.1913 110.83 74.3352 111.602C73.4792 112.374 72.4519 112.757 71.2534 112.75H58.9261ZM65.0898 82.0001C70.7398 82.0001 75.5782 79.9911 79.6051 75.9731C83.632 71.9551 85.6421 67.1307 85.6352 61.5001C85.6352 55.8626 83.6217 51.0348 79.5948 47.0168C75.5679 42.9988 70.7329 40.9932 65.0898 41.0001C59.4398 41.0001 54.6013 43.0091 50.5744 47.0271C46.5475 51.0451 44.5375 55.8694 44.5443 61.5001C44.5443 67.1376 46.5578 71.9653 50.5847 75.9833C54.6116 80.0013 59.4466 82.0069 65.0898 82.0001Z" fill="#3C424B"/>
<circle cx="65" cy="61" r="23" stroke="white" stroke-width="8"/>
<path d="M79.5878 54.1039L79.5871 54.1045L68.4353 65.2637C68.4342 65.2648 68.4331 65.2659 68.432 65.267C68.1651 65.5282 67.8065 65.6746 67.4329 65.6746C67.0594 65.6746 66.7009 65.5283 66.4341 65.2672C66.4329 65.2661 66.4317 65.2649 66.4305 65.2637L61.6147 60.4406L61.6138 60.4397C61.4832 60.3091 61.3796 60.154 61.3089 59.9834C61.2382 59.8128 61.2018 59.6299 61.2018 59.4452C61.2018 59.2605 61.2382 59.0776 61.3089 58.907C61.3796 58.7363 61.4832 58.5813 61.6138 58.4507L61.614 58.4505L72.7266 47.3361C73.2317 46.8311 73.6064 46.2109 73.8186 45.5288C74.0307 44.8468 74.0738 44.1234 73.9443 43.4211C73.8148 42.7187 73.5165 42.0583 73.075 41.4968L71.9068 42.4153L73.075 41.4968C72.6336 40.9353 72.0622 40.4896 71.4102 40.1979L71.41 40.1978C62.4413 36.188 51.3031 38.2785 44.2642 45.2652L44.264 45.2654C38.1599 51.3261 36.489 60.6523 39.2903 70.6266L39.2915 70.6308C39.3614 70.8769 39.3618 71.1376 39.2926 71.384C39.2239 71.6289 39.0891 71.8502 38.903 72.0237C38.9019 72.0246 38.9008 72.0256 38.8998 72.0266L8.67722 99.6296C8.67557 99.6311 8.67392 99.6326 8.67227 99.634C7.34491 100.827 6.27414 102.278 5.52514 103.898C4.77521 105.52 4.36357 107.277 4.31534 109.064C4.26711 110.85 4.58329 112.627 5.2446 114.287C5.9059 115.947 6.89848 117.455 8.16176 118.719C9.42505 119.983 10.9326 120.976 12.5923 121.638C14.2521 122.3 16.0294 122.617 17.8157 122.57C19.602 122.523 21.36 122.112 22.9823 121.362C24.6017 120.615 26.0521 119.545 27.2454 118.219C27.2475 118.217 27.2496 118.215 27.2517 118.212L55.1519 87.9212C55.1521 87.921 55.1522 87.9209 55.1524 87.9207C55.3238 87.7355 55.5424 87.6005 55.7848 87.5302C56.0261 87.4603 56.2817 87.4572 56.5246 87.5211C59.3849 88.3043 62.3352 88.7106 65.3007 88.7298V88.7299H65.3104C71.7037 88.7299 77.4286 86.6553 81.5938 82.5512C85.4214 78.7802 87.5883 73.7415 88.3565 68.8039C89.122 63.8838 88.5232 58.9016 86.6212 55.2055C86.3039 54.5884 85.8454 54.055 85.2829 53.6486C84.7204 53.2423 84.07 52.9746 83.3844 52.8672C82.6989 52.7598 81.9977 52.8159 81.338 53.0308C80.6782 53.2457 80.0785 53.6134 79.5878 54.1039ZM13.5501 111.307L12.1976 111.956L13.5501 111.307C13.164 110.502 13.0374 109.597 13.1876 108.717C13.3378 107.837 13.7575 107.025 14.3887 106.394L13.3278 105.333L14.3887 106.394C15.0199 105.762 15.8315 105.342 16.7116 105.192C17.5917 105.041 18.4968 105.168 19.302 105.553C20.1071 105.939 20.7728 106.565 21.2069 107.345C21.6411 108.126 21.8224 109.021 21.7258 109.909C21.6196 110.886 21.1831 111.797 20.4886 112.491C19.794 113.186 18.8831 113.623 17.9066 113.73C17.019 113.826 16.1232 113.645 15.3429 113.212C14.5626 112.778 13.9362 112.112 13.5501 111.307Z" fill="#3C424B" stroke="white" stroke-width="3"/>
</svg>
