<svg width="137" height="125" viewBox="0 0 137 125" fill="none" xmlns="http://www.w3.org/2000/svg">
<path d="M107.725 119.917C107.131 119.917 106.622 119.725 106.198 119.342C105.774 118.959 105.477 118.473 105.307 117.883L104.162 112.292C103.143 111.868 102.188 111.422 101.295 110.955C100.403 110.487 99.4915 109.916 98.5615 109.242L93.0888 110.894C92.4949 111.063 91.9433 111.041 91.4342 110.828C90.9252 110.614 90.5009 110.255 90.1615 109.75L87.107 104.667C86.7676 104.158 86.6827 103.608 86.8524 103.015C87.0221 102.421 87.3191 101.913 87.7433 101.49L91.9433 97.8041C91.7736 96.618 91.6888 95.5166 91.6888 94.5C91.6888 93.4833 91.7736 92.3819 91.9433 91.1958L87.7433 87.5104C87.3191 87.0868 87.0221 86.5784 86.8524 85.9854C86.6827 85.3923 86.7676 84.8416 87.107 84.3333L90.1615 79.25C90.5009 78.7416 90.9252 78.3824 91.4342 78.1723C91.9433 77.9622 92.4949 77.9402 93.0888 78.1062L98.5615 79.7583C99.4949 79.0805 100.406 78.5095 101.295 78.0452C102.185 77.5809 103.14 77.1353 104.162 76.7083L105.307 71.1166C105.477 70.5236 105.774 70.0356 106.198 69.6526C106.622 69.2697 107.131 69.0799 107.725 69.0833H113.834C114.428 69.0833 114.937 69.2748 115.362 69.6577C115.786 70.0407 116.083 70.527 116.252 71.1166L117.398 76.7083C118.416 77.1319 119.371 77.5979 120.264 78.1062C121.157 78.6145 122.068 79.25 122.998 80.0125L128.343 78.1062C128.937 77.852 129.511 77.852 130.064 78.1062C130.617 78.3604 131.062 78.7416 131.398 79.25L134.452 84.5875C134.792 85.0958 134.919 85.6465 134.834 86.2395C134.749 86.8326 134.452 87.3409 133.943 87.7645L129.616 91.45C129.786 92.4666 129.871 93.5256 129.871 94.627C129.871 95.7284 129.786 96.7875 129.616 97.8041L133.816 101.49C134.24 101.913 134.537 102.421 134.707 103.015C134.877 103.608 134.792 104.158 134.452 104.667L131.398 109.75C131.058 110.258 130.634 110.619 130.125 110.833C129.616 111.046 129.065 111.067 128.471 110.894L122.998 109.242C122.065 109.919 121.153 110.492 120.264 110.96C119.375 111.427 118.419 111.871 117.398 112.292L116.252 117.883C116.083 118.476 115.786 118.964 115.362 119.347C114.937 119.73 114.428 119.92 113.834 119.917H107.725ZM110.78 104.667C113.58 104.667 115.978 103.67 117.973 101.678C119.969 99.685 120.965 97.2924 120.962 94.5C120.962 91.7041 119.964 89.3099 117.968 87.3172C115.972 85.3245 113.576 84.3299 110.78 84.3333C107.98 84.3333 105.582 85.3296 103.586 87.3223C101.591 89.315 100.594 91.7075 100.598 94.5C100.598 97.2958 101.596 99.69 103.591 101.683C105.587 103.675 107.983 104.67 110.78 104.667Z" fill="#3C424B"/>
<path d="M120.115 94.2521C120.115 99.4409 115.912 103.642 110.734 103.642C105.556 103.642 101.354 99.4409 101.354 94.2521C101.354 89.0632 105.556 84.8618 110.734 84.8618C115.912 84.8618 120.115 89.0632 120.115 94.2521Z" stroke="white" stroke-width="8"/>
<g clip-path="url(#clip0_3461_3723)">
<path d="M98.2663 8.92798L66.3872 8.92798C66.0023 8.93399 65.6348 9.08957 65.3626 9.36177C65.0904 9.63396 64.9349 10.0014 64.9288 10.3863C64.9288 10.7731 65.0825 11.144 65.356 11.4175C65.6295 11.691 66.0004 11.8446 66.3872 11.8446L98.2663 11.8446C100.974 11.8446 103.57 12.9202 105.485 14.8346C107.399 16.749 108.475 19.3456 108.475 22.053L108.475 50.928L104.275 50.9571C103.999 50.9529 103.727 51.0269 103.492 51.1707C103.256 51.3146 103.067 51.5222 102.944 51.7696C102.822 52.017 102.773 52.2939 102.802 52.5683C102.831 52.8427 102.937 53.1032 103.108 53.3196L108.825 60.5238C108.961 60.6941 109.134 60.8316 109.331 60.9261C109.528 61.0205 109.744 61.0695 109.962 61.0695C110.181 61.0695 110.396 61.0205 110.593 60.9261C110.79 60.8316 110.963 60.6941 111.1 60.5238L116.758 53.2613C116.929 53.0449 117.035 52.7843 117.064 52.51C117.093 52.2356 117.044 51.9586 116.922 51.7113C116.799 51.4639 116.61 51.2562 116.374 51.1124C116.139 50.9686 115.867 50.8945 115.591 50.8988L111.391 50.928L111.391 22.053C111.386 18.5737 110.001 15.2384 107.541 12.7782C105.081 10.3179 101.746 8.93338 98.2663 8.92798Z" fill="#3C424B"/>
<path d="M53 8.9499C52.1992 8.9499 51.55 9.59909 51.55 10.3999C51.55 11.2007 52.1992 11.8499 53 11.8499V8.9499ZM75 8.9499H53V11.8499H75V8.9499Z" fill="#3C424B"/>
</g>
<path d="M29.8125 50.0313H23.1875C22.7483 50.0313 22.327 50.2058 22.0164 50.5164C21.7058 50.827 21.5313 51.2483 21.5313 51.6875C21.5313 52.1268 21.7058 52.5481 22.0164 52.8587C22.327 53.1693 22.7483 53.3438 23.1875 53.3438H29.8125C30.2518 53.3438 30.6731 53.1693 30.9837 52.8587C31.2943 52.5481 31.4688 52.1268 31.4688 51.6875C31.4688 51.2483 31.2943 50.827 30.9837 50.5164C30.6731 50.2058 30.2518 50.0313 29.8125 50.0313ZM31.4688 45.0625H21.5313C21.092 45.0625 20.6708 45.237 20.3602 45.5476C20.0495 45.8583 19.875 46.2795 19.875 46.7188C19.875 47.1581 20.0495 47.5793 20.3602 47.8899C20.6708 48.2006 21.092 48.375 21.5313 48.375H31.4688C31.9081 48.375 32.3293 48.2006 32.6399 47.8899C32.9506 47.5793 33.125 47.1581 33.125 46.7188C33.125 46.2795 32.9506 45.8583 32.6399 45.5476C32.3293 45.237 31.9081 45.0625 31.4688 45.0625ZM38.2408 8.48944C35.1281 5.37259 30.9585 3.6563 26.5 3.6563C24.3236 3.65111 22.1675 4.07597 20.1557 4.90648C18.1439 5.73698 16.316 6.95677 14.777 8.49577C13.238 10.0348 12.0182 11.8627 11.1877 13.8745C10.3572 15.8863 9.93236 18.0423 9.93755 20.2188C9.93755 25.0447 11.7874 29.559 15.0098 32.6034L15.4611 33.0268C17.3255 34.77 19.875 37.1581 19.875 39.2657V41.75C19.875 42.1893 20.0495 42.6106 20.3602 42.9212C20.6708 43.2318 21.092 43.4063 21.5313 43.4063H24.0157C24.2353 43.4063 24.4459 43.319 24.6012 43.1637C24.7566 43.0084 24.8438 42.7978 24.8438 42.5782V30.4482C24.8439 30.2807 24.7931 30.1172 24.6983 29.9791C24.6035 29.8411 24.4691 29.735 24.3128 29.6749C23.3564 29.2848 22.4478 28.7864 21.6048 28.1895C21.4154 28.0685 21.2525 27.9103 21.1262 27.7243C20.9999 27.5384 20.9127 27.3287 20.8701 27.108C20.8274 26.8873 20.8301 26.6603 20.878 26.4407C20.9259 26.2211 21.018 26.0135 21.1487 25.8306C21.2793 25.6477 21.4459 25.4934 21.6381 25.3769C21.8304 25.2605 22.0444 25.1844 22.267 25.1533C22.4896 25.1222 22.7162 25.1367 22.933 25.196C23.1498 25.2553 23.3523 25.3581 23.5281 25.4981C24.2941 26.0405 25.7692 26.8438 26.5 26.8438C27.2309 26.8438 28.706 26.0384 29.4741 25.4981C29.8317 25.2733 30.2617 25.1936 30.6762 25.2753C31.0906 25.3571 31.4582 25.5942 31.7036 25.938C31.949 26.2818 32.0538 26.7064 31.9965 27.125C31.9392 27.5435 31.7241 27.9243 31.3953 28.1895C30.5521 28.7853 29.6436 29.2826 28.6873 29.6718C28.531 29.7319 28.3966 29.838 28.3018 29.976C28.207 30.1141 28.1562 30.2776 28.1563 30.4451V42.5782C28.1563 42.7978 28.2435 43.0084 28.3988 43.1637C28.5542 43.319 28.7648 43.4063 28.9844 43.4063H31.4688C31.9081 43.4063 32.3293 43.2318 32.6399 42.9212C32.9506 42.6106 33.125 42.1893 33.125 41.75V39.2657C33.125 37.2078 35.6467 34.8217 37.4882 33.0785L37.9965 32.5962C41.3111 29.4317 43.0625 25.1472 43.0625 20.2188C43.0735 18.0421 42.653 15.8848 41.8254 13.8716C40.9978 11.8584 39.7795 10.0291 38.2408 8.48944Z" fill="#3C424B"/>
<g clip-path="url(#clip1_3461_3723)">
<path d="M37.7337 111.072L69.6128 111.072C69.9977 111.066 70.3652 110.91 70.6374 110.638C70.9096 110.366 71.0651 109.999 71.0712 109.614C71.0712 109.227 70.9175 108.856 70.644 108.582C70.3705 108.309 69.9996 108.155 69.6128 108.155L37.7337 108.155C35.0262 108.155 32.4297 107.08 30.5153 105.165C28.6008 103.251 27.5253 100.654 27.5253 97.947L27.5253 69.072L31.7253 69.0429C32.0012 69.0471 32.2726 68.9731 32.5081 68.8293C32.7435 68.6854 32.9333 68.4778 33.0555 68.2304C33.1777 67.983 33.2272 67.7061 33.1982 67.4317C33.1693 67.1573 33.0631 66.8968 32.892 66.6804L27.1753 59.4762C27.0387 59.3059 26.8655 59.1684 26.6686 59.0739C26.4718 58.9795 26.2562 58.9305 26.0378 58.9305C25.8195 58.9305 25.6039 58.9795 25.407 59.0739C25.2101 59.1684 25.037 59.3059 24.9003 59.4762L19.242 66.7387C19.0709 66.9551 18.9647 67.2157 18.9358 67.49C18.9068 67.7644 18.9563 68.0414 19.0785 68.2887C19.2006 68.5361 19.3905 68.7438 19.6259 68.8876C19.8614 69.0314 20.1328 69.1055 20.4087 69.1012L24.6087 69.072L24.6087 97.947C24.6141 101.426 25.9986 104.762 28.4589 107.222C30.9191 109.682 34.2544 111.067 37.7337 111.072Z" fill="#3C424B"/>
<path d="M83 111.05C83.8008 111.05 84.45 110.401 84.45 109.6C84.45 108.799 83.8008 108.15 83 108.15L83 111.05ZM61 111.05L83 111.05L83 108.15L61 108.15L61 111.05Z" fill="#3C424B"/>
</g>
<defs>
<clipPath id="clip0_3461_3723">
<rect width="70" height="79" fill="white" transform="translate(126) rotate(90)"/>
</clipPath>
<clipPath id="clip1_3461_3723">
<rect width="70" height="79" fill="white" transform="translate(10 120) rotate(-90)"/>
</clipPath>
</defs>
</svg>
