<svg width="135" height="121" viewBox="0 0 135 121" fill="none" xmlns="http://www.w3.org/2000/svg">
<path d="M49.1544 102.667C48.062 102.667 47.1256 102.315 46.3453 101.612C45.565 100.909 45.0188 100.016 44.7067 98.9333L42.5998 88.6666C40.7271 87.8889 38.9699 87.0706 37.3281 86.212C35.6864 85.3533 34.0103 84.3049 32.2999 83.0666L22.2339 86.1C21.1415 86.4111 20.1271 86.3706 19.1908 85.9786C18.2544 85.5866 17.4741 84.9271 16.8499 84L11.2317 74.6666C10.6074 73.7333 10.4514 72.7222 10.7635 71.6333C11.0756 70.5444 11.6218 69.6111 12.4021 68.8333L20.1271 62.0666C19.815 59.8889 19.6589 57.8666 19.6589 56C19.6589 54.1333 19.815 52.1111 20.1271 49.9333L12.4021 43.1667C11.6218 42.3889 11.0756 41.4556 10.7635 40.3667C10.4514 39.2778 10.6074 38.2667 11.2317 37.3333L16.8499 28C17.4741 27.0667 18.2544 26.4071 19.1908 26.0213C20.1271 25.6356 21.1415 25.5951 22.2339 25.9L32.2999 28.9333C34.0165 27.6889 35.6926 26.6404 37.3281 25.788C38.9636 24.9355 40.7209 24.1173 42.5998 23.3333L44.7067 13.0667C45.0188 11.9778 45.565 11.0818 46.3453 10.3787C47.1256 9.67556 48.062 9.32711 49.1544 9.33333H60.3908C61.4832 9.33333 62.4196 9.68489 63.1999 10.388C63.9802 11.0911 64.5264 11.984 64.8385 13.0667L66.9453 23.3333C68.818 24.1111 70.5753 24.9667 72.217 25.9C73.8588 26.8333 75.5349 28 77.2453 29.4L87.0771 25.9C88.1695 25.4333 89.2245 25.4333 90.2421 25.9C91.2596 26.3667 92.0773 27.0667 92.6953 28L98.3135 37.8C98.9377 38.7333 99.1718 39.7444 99.0158 40.8333C98.8597 41.9222 98.3135 42.8555 97.3771 43.6333L89.418 50.4C89.7302 52.2666 89.8862 54.2111 89.8862 56.2333C89.8862 58.2555 89.7302 60.2 89.418 62.0666L97.143 68.8333C97.9233 69.6111 98.4696 70.5444 98.7817 71.6333C99.0938 72.7222 98.9377 73.7333 98.3135 74.6666L92.6953 84C92.0711 84.9333 91.2908 85.596 90.3544 85.988C89.418 86.38 88.4037 86.4173 87.3112 86.1L77.2453 83.0666C75.5286 84.3111 73.8526 85.3626 72.217 86.2213C70.5815 87.08 68.8243 87.8951 66.9453 88.6666L64.8385 98.9333C64.5264 100.022 63.9802 100.918 63.1999 101.621C62.4196 102.324 61.4832 102.673 60.3908 102.667H49.1544ZM54.7726 74.6666C59.9226 74.6666 64.3329 72.8373 68.0034 69.1786C71.674 65.52 73.5061 61.1271 73.4999 56C73.4999 50.8666 71.6646 46.4707 67.994 42.812C64.3235 39.1533 59.9163 37.3271 54.7726 37.3333C49.6226 37.3333 45.2123 39.1627 41.5418 42.8213C37.8712 46.48 36.0391 50.8729 36.0453 56C36.0453 61.1333 37.8806 65.5293 41.5511 69.188C45.2217 72.8466 49.6288 74.6729 54.7726 74.6666Z" fill="#3C424B"/>
<path d="M75.3013 55.5446C75.3013 66.9097 66.0775 76.13 54.6907 76.13C43.3039 76.13 34.0801 66.9097 34.0801 55.5446C34.0801 44.1795 43.3039 34.9592 54.6907 34.9592C66.0775 34.9592 75.3013 44.1795 75.3013 55.5446Z" stroke="white" stroke-width="8"/>
<g clip-path="url(#clip0_3461_3724)">
<path d="M71.2191 108.645L76.1309 106.772L74.3726 105.139L119.032 55.4873L121.572 52.795L126.852 47.198L126.856 47.194C126.879 47.17 126.907 47.1409 126.939 47.107C127.002 47.0394 127.082 46.9518 127.175 46.8457C127.36 46.6347 127.601 46.3446 127.868 45.9867C128.388 45.2901 129.073 44.2426 129.595 42.9461C130.116 41.6534 130.548 39.9229 130.31 37.969C130.061 35.9255 129.117 33.9822 127.437 32.3403L127.372 32.2765L127.304 32.2154L118.435 24.2223C115.639 21.5347 112.425 21.0528 109.711 21.8345C107.384 22.5045 105.843 23.972 105.383 24.4373L105.376 24.4447L105.369 24.4522L105.278 24.5448L105.198 24.6262L105.123 24.7116L98.2499 32.4801L95.2158 35.9097L95.2201 35.9134L52.203 84.5431L50.5195 82.9792L48.5554 88.6666L48.2608 88.9996L48.3971 89.1249L48.2645 89.509L40.3182 112.519L37.1737 121.624L46.1747 118.193L69.3705 109.349L70.0909 109.075L70.4966 109.448L71.2191 108.645Z" fill="#3C424B" stroke="white" stroke-width="9"/>
</g>
<defs>
<clipPath id="clip0_3461_3724">
<rect width="94" height="98" fill="white" transform="translate(41 23)"/>
</clipPath>
</defs>
</svg>
