<svg width="34" height="31" viewBox="0 0 34 31" fill="none" xmlns="http://www.w3.org/2000/svg">
<path d="M0.599999 4.00053V4.00033C0.599999 2.28676 1.95637 0.916992 3.66667 0.916992H30.3333C32.0453 0.916992 33.4167 2.2884 33.4167 4.00033V13.7503H3.66667H3.41667V14.0003V24.0003V24.2503H3.66667H11.75V27.0837H3.66667C1.95474 27.0837 0.583332 25.7123 0.583332 24.0003L0.599999 4.00053ZM30.3333 7.58366H30.5833V7.33366V4.00033V3.75033H30.3333H3.66667H3.41667V4.00033V7.33366V7.58366H3.66667H30.3333ZM21.7066 26.1271L21.8832 26.3037L22.06 26.1273L31.3165 16.8871L33.3131 18.8837L21.8835 30.3132L15.17 23.5839L17.1667 21.5872L21.7066 26.1271Z" fill="white" stroke="#0C173A" stroke-width="0.5"/>
</svg>
