<svg width="34" height="34" viewBox="0 0 34 34" fill="none" xmlns="http://www.w3.org/2000/svg">
<path d="M22.0232 13.3896L20.4333 14.9795L19.0202 13.5663L22.2 10.3866L25.3798 13.5663L23.9667 14.9795L22.3768 13.3896L22.2 13.2128L22.0232 13.3896ZM11.9768 13.3896L11.8 13.2128L11.6232 13.3896L10.0333 14.9795L8.62022 13.5663L11.8 10.3866L14.9798 13.5663L13.5667 14.9795L11.9768 13.3896ZM0.583332 16.9997C0.583332 7.92092 7.92157 0.583008 16.9833 0.583008C26.0623 0.583008 33.4167 7.9214 33.4167 16.9997C33.4167 26.0778 26.0457 33.4163 16.9833 33.4163C7.92157 33.4163 0.583332 26.0784 0.583332 16.9997ZM3.41667 16.9997C3.41667 24.5044 9.49526 30.583 17 30.583C24.5047 30.583 30.5833 24.5044 30.5833 16.9997C30.5833 9.49494 24.5047 3.41634 17 3.41634C9.49526 3.41634 3.41667 9.49494 3.41667 16.9997ZM8.85814 20.583H25.1419C23.7627 23.712 20.6446 25.9163 17 25.9163C13.3554 25.9163 10.2373 23.712 8.85814 20.583Z" fill="white" stroke="#0C173A" stroke-width="0.5"/>
</svg>
