<svg width="31" height="37" viewBox="0 0 31 37" fill="none" xmlns="http://www.w3.org/2000/svg">
<path d="M4.42857 2.56934C1.98594 2.56934 0 4.5873 0 7.06934V29.5693C0 32.0514 1.98594 34.0693 4.42857 34.0693H26.5714C29.0141 34.0693 31 32.0514 31 29.5693V7.06934C31 4.5873 29.0141 2.56934 26.5714 2.56934H4.42857ZM24.9868 8.47559L17.8042 16.8146L26.2531 28.1631H19.6379L14.4621 21.2795L8.53192 28.1631H5.24509L12.9259 19.2404L4.82299 8.47559H11.6042L16.2888 14.7686L21.7 8.47559H24.9868ZM22.3712 26.1662L10.6147 10.367H8.65647L20.5444 26.1662H22.3643H22.3712Z" fill="black"/>
</svg>
